<svg id="SvgjsSvg1037" width="288" height="288" xmlns="http://www.w3.org/2000/svg" version="1.1" xmlns:xlink="http://www.w3.org/1999/xlink" xmlns:svgjs="http://svgjs.com/svgjs"><defs id="SvgjsDefs1038"></defs><g id="SvgjsG1039"><svg xmlns="http://www.w3.org/2000/svg" viewBox="0 0 64 64" width="288" height="288"><g><path d="M32,3A29,29,0,0,0,3,32V60a1,1,0,0,0,1,1H32A29,29,0,0,0,32,3Zm0,56H5V32A27,27,0,1,1,32,59Z" fill="#4a4a8a" class="svgShape color000000-1 selectable"></path><path d="M42.71 37.29a1 1 0 0 0-1.41 0l-4 4a5.46 5.46 0 0 1-7.73 0l-6.86-6.86a5.47 5.47 0 0 1 0-7.73l4-4a1 1 0 0 0 0-1.41l-8-8a1 1 0 0 0-1.41 0l-5.14 5.14a1 1 0 0 0-.18.25A22.88 22.88 0 0 0 16.1 45.52l2.38 2.38A22.88 22.88 0 0 0 45.32 52a1 1 0 0 0 .25-.18l5.14-5.14a1 1 0 0 0 0-1.41zm1.55 13A20.89 20.89 0 0 1 19.9 46.48L17.52 44.1a20.88 20.88 0 0 1-3.84-24.36L18 15.41 24.59 22l-3.29 3.29a7.47 7.47 0 0 0 0 10.56l6.86 6.86a7.46 7.46 0 0 0 10.56 0L42 39.41 48.59 46zM32 22a1 1 0 0 0 1-1V8a1 1 0 0 0-2 0V21A1 1 0 0 0 32 22zM56 31H43a1 1 0 0 0 0 2H56a1 1 0 0 0 0-2zM37.5 27.5a1 1 0 0 0 .71-.29l9-9a1 1 0 0 0-1.41-1.41l-9 9a1 1 0 0 0 .71 1.71z" fill="#4a4a8a" class="svgShape color000000-2 selectable"></path></g></svg></g></svg>